<svg width="18" height="18" fill="none" xmlns="http://www.w3.org/2000/svg"><path d="M16.687 2.611a4.561 4.561 0 00-3.468-1.562c-1.897 0-3.098 1.133-3.77 2.083A6.9 6.9 0 009 3.858a6.895 6.895 0 00-.448-.726c-.673-.95-1.874-2.083-3.77-2.083-1.35 0-2.58.555-3.469 1.562C.466 3.572 0 4.86 0 6.235c0 1.498.585 2.89 1.84 4.384 1.122 1.335 2.737 2.71 4.606 4.303.696.594 1.417 1.207 2.184 1.878l.023.02a.526.526 0 00.694 0l.023-.02c.767-.67 1.488-1.284 2.184-1.878 1.87-1.593 3.484-2.968 4.606-4.303C17.415 9.126 18 7.733 18 6.235c0-1.376-.466-2.663-1.313-3.624zM10.87 14.12c-.6.512-1.218 1.039-1.87 1.605-.652-.566-1.27-1.093-1.87-1.605-3.659-3.117-6.075-5.177-6.075-7.884 0-1.119.373-2.158 1.05-2.927A3.52 3.52 0 014.78 2.104c1.446 0 2.38.89 2.91 1.638.475.67.723 1.346.808 1.605a.527.527 0 001.002 0c.085-.26.333-.935.808-1.605.53-.748 1.464-1.638 2.91-1.638a3.52 3.52 0 012.676 1.204c.678.769 1.05 1.808 1.05 2.927 0 2.707-2.417 4.767-6.075 7.884z" fill="#F2F2F2"/></svg>