<svg width="18" height="18" fill="none" xmlns="http://www.w3.org/2000/svg"><g clip-path="url(#clip0)"><path d="M4.029 17.636a.957.957 0 01-.932-1.17l1.158-5.101L.327 7.921A.956.956 0 01.87 6.247l5.196-.472L8.12.968A.956.956 0 019.88.967l2.054 4.808 5.195.472a.956.956 0 01.544 1.674l-3.927 3.443 1.158 5.101a.956.956 0 01-1.423 1.034L9 14.82 4.52 17.5a.958.958 0 01-.491.135zM9 13.668c.17 0 .339.045.49.135l4.23 2.53-1.094-4.815a.957.957 0 01.303-.932l3.708-3.252-4.905-.446a.956.956 0 01-.795-.58L9 1.771 7.061 6.31a.953.953 0 01-.793.578l-4.906.445 3.708 3.252c.265.233.382.59.303.933L4.28 16.332l4.228-2.529A.958.958 0 019 13.668zm-2.974-7.8v.002-.002zm5.946-.002l.001.001v-.001z" fill="#F2F2F2"/></g><defs><clipPath id="clip0"><path fill="#fff" d="M0 0h18v18H0z"/></clipPath></defs></svg>