<svg width="16" height="16" viewBox="0 0 16 16" fill="none" xmlns="http://www.w3.org/2000/svg">
<g clip-path="url(#clip0)">
<path d="M7.56094 12.1383L0.180933 4.73787C-0.0607219 4.4954 -0.0603156 4.10284 0.182183 3.86078C0.424651 3.6189 0.817431 3.61953 1.05927 3.86203L8.00003 10.822L14.9408 3.86178C15.1826 3.61931 15.5752 3.61868 15.8177 3.86053C15.9392 3.98187 16 4.14084 16 4.29981C16 4.45837 15.9396 4.61671 15.8189 4.73784L8.43909 12.1383C8.3229 12.2551 8.16478 12.3207 8.00003 12.3207C7.83528 12.3207 7.67734 12.2549 7.56094 12.1383Z" fill="#F2F2F2"/>
</g>
<defs>
<clipPath id="clip0">
<rect width="16" height="16" fill="white" transform="matrix(0 1 1 0 0 6.10352e-05)"/>
</clipPath>
</defs>
</svg>
