<svg width="18" height="18" viewBox="0 0 18 18" fill="none" xmlns="http://www.w3.org/2000/svg">
<path d="M16.6867 2.61108C15.7989 1.60372 14.5673 1.04895 13.2188 1.04895C11.3221 1.04895 10.1214 2.18168 9.44807 3.13196C9.27337 3.37854 9.12477 3.6258 9 3.85846C8.87523 3.6258 8.72666 3.37854 8.55193 3.13196C7.87862 2.18168 6.67786 1.04895 4.78125 1.04895C3.43273 1.04895 2.2011 1.60375 1.31326 2.61112C0.466418 3.57208 0 4.85908 0 6.23502C0 7.73279 0.584754 9.12585 1.84025 10.619C2.96234 11.9535 4.57661 13.3291 6.4459 14.922C7.14245 15.5156 7.86277 16.1294 8.62963 16.8004L8.65266 16.8206C8.75208 16.9076 8.87604 16.9511 9 16.9511C9.12396 16.9511 9.24792 16.9076 9.34734 16.8206L9.37037 16.8004C10.1372 16.1294 10.8576 15.5156 11.5542 14.922C13.4234 13.3292 15.0377 11.9536 16.1597 10.619C17.4152 9.12582 18 7.73279 18 6.23502C18 4.85908 17.5336 3.57208 16.6867 2.61108ZM10.8701 14.1193C10.2696 14.6309 9.65162 15.1575 9 15.724C8.34841 15.1576 7.7304 14.631 7.12983 14.1192C3.4715 11.0018 1.05469 8.9423 1.05469 6.23502C1.05469 5.116 1.42752 4.07664 2.10452 3.30844C2.7893 2.53152 3.73989 2.10364 4.78125 2.10364C6.22719 2.10364 7.16189 2.99443 7.69134 3.74171C8.16627 4.41193 8.41409 5.08756 8.4986 5.34691C8.5693 5.564 8.7717 5.71091 9 5.71091C9.2283 5.71091 9.4307 5.564 9.5014 5.34691C9.58591 5.08756 9.83373 4.41193 10.3087 3.74167C10.8381 2.99443 11.7728 2.10364 13.2188 2.10364C14.2601 2.10364 15.2107 2.53152 15.8954 3.30844C16.5725 4.07664 16.9453 5.116 16.9453 6.23502C16.9453 8.9423 14.5285 11.0018 10.8701 14.1193Z" fill="#F2F2F2"/>
</svg>
