<svg width="16" height="16" viewBox="0 0 16 16" fill="none" xmlns="http://www.w3.org/2000/svg">
<g clip-path="url(#clip0)">
<path d="M12.1382 8.43907L4.73778 15.8191C4.49531 16.0607 4.10275 16.0603 3.86069 15.8178C3.61881 15.5754 3.61944 15.1826 3.86194 14.9407L10.8219 7.99998L3.86169 1.05926C3.61922 0.817384 3.61859 0.424854 3.86044 0.182355C3.98178 0.0607929 4.14075 1.14441e-05 4.29972 1.14441e-05C4.45828 1.14441e-05 4.61662 0.0603867 4.73774 0.181105L12.1382 7.56092C12.255 7.67711 12.3206 7.83523 12.3206 7.99998C12.3206 8.16473 12.2548 8.32267 12.1382 8.43907Z" fill="#F2F2F2"/>
</g>
<defs>
<clipPath id="clip0">
<rect width="16" height="16" fill="white" transform="matrix(1 0 0 -1 0 16)"/>
</clipPath>
</defs>
</svg>
