<svg width="16" height="16" viewBox="0 0 16 16" fill="none" xmlns="http://www.w3.org/2000/svg">
<g clip-path="url(#clip0)">
<path d="M3.86175 7.56093L11.2622 0.180922C11.5047 -0.0607333 11.8973 -0.0603271 12.1393 0.182172C12.3812 0.42464 12.3806 0.81742 12.1381 1.05926L5.17809 8.00002L12.1383 14.9407C12.3808 15.1826 12.3814 15.5751 12.1396 15.8176C12.0182 15.9392 11.8593 16 11.7003 16C11.5417 16 11.3834 15.9396 11.2623 15.8189L3.86175 8.43908C3.74497 8.32289 3.67944 8.16477 3.67944 8.00002C3.67944 7.83527 3.74516 7.67733 3.86175 7.56093Z" fill="#F2F2F2"/>
</g>
<defs>
<clipPath id="clip0">
<rect width="16" height="16" fill="white" transform="matrix(-1 0 0 1 16 0)"/>
</clipPath>
</defs>
</svg>
