<svg width="18" height="18" viewBox="0 0 18 18" fill="none" xmlns="http://www.w3.org/2000/svg">
<g clip-path="url(#clip0)">
<path d="M4.02881 17.636C3.8316 17.636 3.63577 17.5745 3.46863 17.4537C3.1573 17.228 3.01187 16.8402 3.0966 16.466L4.25459 11.365L0.327424 7.92098C0.0387509 7.66898 -0.0715272 7.26989 0.0469909 6.90472C0.165509 6.54024 0.487966 6.28219 0.869751 6.2469L6.06587 5.77516L8.12023 0.967559C8.2717 0.61434 8.61668 0.38623 8.99998 0.38623C9.38328 0.38623 9.72826 0.61434 9.87973 0.966735L11.9341 5.77516L17.1294 6.2469C17.512 6.28137 17.8345 6.54024 17.953 6.90472C18.0715 7.2692 17.9619 7.66898 17.6732 7.92098L13.7461 11.3643L14.904 16.4651C14.9889 16.8402 14.8433 17.228 14.5322 17.453C14.2216 17.6779 13.8076 17.6952 13.4806 17.4987L8.99998 14.8211L4.51937 17.5002C4.36789 17.5902 4.19911 17.636 4.02881 17.636ZM8.99998 13.6677C9.17027 13.6677 9.33892 13.7134 9.49053 13.8034L13.7191 16.3325L12.6262 11.518C12.5482 11.1754 12.6646 10.8176 12.9293 10.5858L16.6375 7.33375L11.7315 6.88824C11.3783 6.85597 11.0745 6.6339 10.9365 6.30842L8.99998 1.7715L7.06112 6.30911C6.92461 6.63239 6.62083 6.85446 6.26843 6.88673L1.36181 7.33224L5.06979 10.5843C5.3354 10.8168 5.45158 11.1738 5.37289 11.5173L4.28082 16.3316L8.50943 13.8034C8.66091 13.7134 8.82969 13.6677 8.99998 13.6677ZM6.02618 5.86814C6.02618 5.86814 6.02618 5.86896 6.02536 5.86965L6.02618 5.86814ZM11.9723 5.86594L11.9731 5.86745C11.9731 5.86663 11.9731 5.86663 11.9723 5.86594Z" fill="#F2F2F2"/>
</g>
<defs>
<clipPath id="clip0">
<rect width="18" height="18" fill="white"/>
</clipPath>
</defs>
</svg>
